<svg width="16" height="16" viewBox="0 0 16 16" fill="none" xmlns="http://www.w3.org/2000/svg">
<path d="M8.57261 10.5273H7.42794C6.84794 10.5273 6.27994 10.292 5.86994 9.882L5.16394 9.176C4.93994 8.952 4.62928 8.82333 4.31261 8.82333H1.22461C0.948609 8.82333 0.724609 8.59933 0.724609 8.32333C0.724609 8.04733 0.948609 7.82333 1.22461 7.82333H4.31194C4.89194 7.82333 5.45994 8.05867 5.86994 8.46867L6.57594 9.17467C6.79994 9.39867 7.11061 9.52733 7.42728 9.52733H8.57194C8.88861 9.52733 9.19861 9.39867 9.42328 9.17467L10.1286 8.46933C10.5393 8.05933 11.1073 7.824 11.6866 7.824H14.7746C15.0506 7.824 15.2746 8.048 15.2746 8.324C15.2746 8.6 15.0506 8.824 14.7746 8.824H11.6866C11.3699 8.824 11.0599 8.95267 10.8353 9.17667L10.1299 9.882C9.71928 10.292 9.15128 10.5273 8.57194 10.5273H8.57261Z" fill="#F4F1FF"/>
<path d="M12.26 14.464H3.73996C2.05463 14.464 0.68396 13.0933 0.68396 11.408V8.75801C0.68396 8.44267 0.725293 8.12934 0.808627 7.82601L1.89063 3.84067C2.22796 2.48734 3.44729 1.53534 4.85263 1.53534H11.086C12.4906 1.53534 13.71 2.48734 14.0506 3.85001L15.1806 7.80267C15.2713 8.12067 15.3173 8.44934 15.3173 8.78067V11.408C15.3173 13.0933 13.9466 14.464 12.2613 14.464H12.26ZM4.85196 2.53601C3.90663 2.53601 3.08663 3.17601 2.85729 4.09334L1.77329 8.08867C1.71396 8.30667 1.68396 8.53267 1.68396 8.75867V11.4087C1.68396 12.5427 2.60596 13.4647 3.73996 13.4647H12.26C13.394 13.4647 14.316 12.5427 14.316 11.4087V8.78134C14.316 8.54334 14.2826 8.30667 14.218 8.07801L13.084 4.10934C12.8506 3.17667 12.03 2.53601 11.0853 2.53601H4.85196Z" fill="#F4F1FF"/>
</svg>
