<svg width="16" height="16" viewBox="0 0 16 16" fill="none" xmlns="http://www.w3.org/2000/svg">
<path d="M10.5104 5.5229C10.2515 5.5229 10.0416 5.73278 10.0416 5.99165V6.99581C10.0647 7.61709 10.9563 7.61662 10.9791 6.99581V5.99165C10.9791 5.73278 10.7693 5.5229 10.5104 5.5229Z" fill="#F4F1FF"/>
<path d="M10.5104 8.5354C10.2515 8.5354 10.0416 8.74528 10.0416 9.00415V10.0083C10.0647 10.6296 10.9563 10.6291 10.9791 10.0083V9.00415C10.9791 8.74528 10.7693 8.5354 10.5104 8.5354Z" fill="#F4F1FF"/>
<path d="M15.5312 6.46041C15.7901 6.46041 16 6.25053 16 5.99166V4.82178C16 3.37447 15.1359 2.51041 13.6886 2.51041H2.31141C0.864062 2.51041 0 3.3745 0 4.82181V5.99169C0 6.25056 0.209875 6.46044 0.46875 6.46044C2.50859 6.53794 2.50769 9.46256 0.468719 9.53959C0.209844 9.53959 0 9.74947 0 10.0083V11.1782C0 12.6255 0.864062 13.4896 2.31141 13.4896H13.6886C15.1359 13.4896 16 12.6255 16 11.1782V10.0083C16 9.74947 15.7901 9.53959 15.5312 9.53959C13.4914 9.46219 13.4923 6.53738 15.5312 6.46041ZM15.0625 10.4326V11.1782C15.0625 12.1155 14.6259 12.5521 13.6886 12.5521H10.9792V12.0167C10.9561 11.3954 10.0645 11.3958 10.0417 12.0167V12.5521H2.31141C1.37406 12.5521 0.9375 12.1155 0.9375 11.1782V10.4326C3.59884 9.87859 3.597 6.12038 0.9375 5.56738V4.82178C0.9375 3.88447 1.37406 3.44791 2.31141 3.44791H10.0417V3.98331C10.0648 4.60459 10.9563 4.60413 10.9792 3.98331V3.44791H13.6886C14.626 3.44791 15.0625 3.88447 15.0625 4.82178V5.56738C12.4012 6.12141 12.403 9.87962 15.0625 10.4326Z" fill="#F4F1FF"/>
</svg>
