<svg width="16" height="16" viewBox="0 0 16 16" fill="none" xmlns="http://www.w3.org/2000/svg">
<path fill-rule="evenodd" clip-rule="evenodd" d="M5.71561 1.67447C4.61094 1.67447 3.69361 2.56914 3.66761 3.67247V10.8025C3.64294 11.9445 4.54294 12.8851 5.67361 12.9105H11.0496C12.1622 12.8645 13.0436 11.9398 13.0356 10.8065V4.89314L9.94557 1.67447H5.71561ZM5.65094 13.9105C3.96961 13.8725 2.63094 12.4738 2.66761 10.7918V3.66047C2.70627 2.00647 4.07227 0.674469 5.71427 0.674469H10.1589C10.2949 0.674469 10.4249 0.729802 10.5196 0.827802L13.8962 4.3458C13.9856 4.43847 14.0356 4.56314 14.0356 4.6918V10.8025C14.0476 12.4751 12.7449 13.8418 11.0696 13.9098L5.65094 13.9105Z" fill="#F4F1FF"/>
<path fill-rule="evenodd" clip-rule="evenodd" d="M13.5323 5.32287H11.6956C10.4756 5.31954 9.48364 4.32487 9.48364 3.1062V1.16687C9.48364 0.89087 9.70764 0.66687 9.98364 0.66687C10.2596 0.66687 10.4836 0.89087 10.4836 1.16687V3.1062C10.4836 3.77554 11.0283 4.32087 11.697 4.32287H13.5323C13.8083 4.32287 14.0323 4.54687 14.0323 4.82287C14.0323 5.09887 13.8083 5.32287 13.5323 5.32287Z" fill="#F4F1FF"/>
<path fill-rule="evenodd" clip-rule="evenodd" d="M9.85912 10.0723H6.25916C5.98316 10.0723 5.75916 9.84827 5.75916 9.57227C5.75916 9.29627 5.98316 9.07227 6.25916 9.07227H9.85912C10.1351 9.07227 10.3591 9.29627 10.3591 9.57227C10.3591 9.84827 10.1351 10.0723 9.85912 10.0723Z" fill="#F4F1FF"/>
<path fill-rule="evenodd" clip-rule="evenodd" d="M8.49584 7.57094H6.25854C5.98254 7.57094 5.75854 7.34694 5.75854 7.07094C5.75854 6.79494 5.98254 6.57094 6.25854 6.57094H8.49584C8.77184 6.57094 8.99584 6.79494 8.99584 7.07094C8.99584 7.34694 8.77184 7.57094 8.49584 7.57094Z" fill="#F4F1FF"/>
</svg>
