<svg width="16" height="16" viewBox="0 0 16 16" fill="none" xmlns="http://www.w3.org/2000/svg">
<path d="M12.6667 14.9467H3.33337C1.95337 14.9467 0.833374 13.8267 0.833374 12.4467V6.82C0.833374 6.00667 1.23337 5.24 1.90004 4.77334L6.56671 1.50667C7.42671 0.906671 8.58004 0.906671 9.43337 1.50667L14.1 4.77334C14.7667 5.24 15.1667 6.00667 15.1667 6.82V12.4467C15.1667 13.8267 14.0467 14.9467 12.6667 14.9467ZM8.00004 2.05334C7.70004 2.05334 7.40004 2.14667 7.14004 2.32667L2.47337 5.59334C2.07337 5.87334 1.83337 6.33334 1.83337 6.82V12.4467C1.83337 13.2733 2.50671 13.9467 3.33337 13.9467H12.6667C13.4934 13.9467 14.1667 13.2733 14.1667 12.4467V6.82C14.1667 6.33334 13.9267 5.87334 13.5267 5.59334L8.86004 2.32667C8.60004 2.14667 8.30004 2.06 8.00004 2.06V2.05334Z" fill="#F4F1FF"/>
<path d="M10.6667 14.9467H5.33337C5.06004 14.9467 4.83337 14.72 4.83337 14.4467V11.1133C4.83337 9.36667 6.25337 7.94667 8.00004 7.94667C9.74671 7.94667 11.1667 9.36667 11.1667 11.1133V14.4467C11.1667 14.72 10.94 14.9467 10.6667 14.9467ZM5.83337 13.9467H10.1667V11.1133C10.1667 9.92 9.19337 8.94667 8.00004 8.94667C6.80671 8.94667 5.83337 9.92 5.83337 11.1133V13.9467Z" fill="#F4F1FF"/>
</svg>
