<svg width="16" height="16" viewBox="0 0 16 16" fill="none" xmlns="http://www.w3.org/2000/svg">
<path d="M8.97566 7.87685C10.0233 7.27721 10.7391 6.16069 10.7391 4.86955C10.7391 2.95164 9.17878 1.39128 7.26087 1.39128C5.34295 1.39128 3.7826 2.95164 3.7826 4.86955C3.7826 6.16069 4.49842 7.27721 5.54607 7.87685C2.92558 8.56486 1 10.7805 1 13.4066V14.2608C1 14.4528 1.15584 14.6087 1.34784 14.6087C1.53984 14.6087 1.69567 14.4528 1.69567 14.2608V13.4066C1.69564 10.6177 4.19236 8.34782 7.26087 8.34782C10.3294 8.34782 12.8261 10.6177 12.8261 13.4066V14.2608C12.8261 14.4528 12.9819 14.6087 13.1739 14.6087C13.3659 14.6087 13.5218 14.4528 13.5218 14.2608V13.4066C13.5217 10.7805 11.5962 8.56418 8.97566 7.87685ZM4.47827 4.86955C4.47827 3.33495 5.72627 2.08695 7.26087 2.08695C8.79546 2.08695 10.0435 3.33495 10.0435 4.86955C10.0435 6.40415 8.79546 7.65215 7.26087 7.65215C5.72627 7.65215 4.47827 6.40418 4.47827 4.86955Z" fill="#F4F1FF" stroke="#F4F1FF" stroke-width="0.2"/>
<path d="M12.6595 7.88591C13.4135 7.38713 13.913 6.53425 13.913 5.56522C13.913 4.03062 12.665 2.78262 11.1304 2.78262C10.9384 2.78262 10.7826 2.93846 10.7826 3.13046C10.7826 3.32246 10.9384 3.4783 11.1304 3.4783C12.281 3.4783 13.2174 4.41465 13.2174 5.56525C13.2174 6.71585 12.281 7.65221 11.1304 7.65221C10.9384 7.65221 10.7826 7.80804 10.7826 8.00004C10.7826 8.19204 10.9384 8.34782 11.1304 8.34782C13.4323 8.34782 15.3043 10.0779 15.3043 12.2052V12.8695C15.3043 13.0615 15.4601 13.2174 15.6521 13.2174C15.8441 13.2174 16 13.0615 16 12.8695V12.2052C16 10.1948 14.5975 8.48696 12.6595 7.88591Z" fill="#F4F1FF"/>
</svg>
