<svg width="16" height="16" viewBox="0 0 16 16" fill="none" xmlns="http://www.w3.org/2000/svg">
<rect width="16" height="16" rx="4" fill="url(#paint0_linear_12_424)"/>
<mask id="mask0_12_424" style="mask-type:luminance" maskUnits="userSpaceOnUse" x="0" y="0" width="16" height="16">
<path d="M10.4178 0C12.0178 0 12.8178 0 13.6889 0.266667C14.6311 0.604444 15.3778 1.35111 15.7156 2.29333C16 3.16444 16 3.98222 16 5.58222V10.4178C16 12.0178 16 12.8178 15.7333 13.6889C15.3956 14.6311 14.6489 15.3778 13.7067 15.7156C12.8178 16 12.0178 16 10.4178 16H5.58222C3.98222 16 3.18222 16 2.31111 15.7333C1.35111 15.3778 0.622222 14.6489 0.266667 13.6889C0 12.8356 0 12.0356 0 10.4178V5.58222C0 3.98222 0 3.18222 0.266667 2.31111C0.622222 1.36889 1.35111 0.622222 2.31111 0.284444C3.16444 -2.11928e-08 3.96444 0 5.58222 0H10.4178Z" fill="white"/>
</mask>
<g mask="url(#mask0_12_424)">
<path d="M3.60886 11.2533C3.62664 11.2178 3.6622 11.2 3.69775 11.1822C3.83998 11.1467 3.9822 11.1111 4.12442 11.1111C4.51553 11.1111 4.87109 11.2533 5.15553 11.5022C5.19109 11.5378 5.19109 11.5911 5.17331 11.6267L4.44442 12.8711C4.3022 13.12 4.03553 13.2622 3.76886 13.2622C3.60886 13.2622 3.44886 13.2089 3.30664 13.1022C2.98664 12.8711 2.91553 12.4089 3.11109 12.0711L3.60886 11.2533ZM13.0844 9.35111C13.4933 9.35111 13.8489 9.65334 13.8844 10.0444C13.92 10.5067 13.5644 10.8978 13.12 10.8978H12.1778L12.8711 12.0889C13.0666 12.4267 12.9955 12.8889 12.6755 13.12C12.5333 13.2267 12.3733 13.28 12.2133 13.28C11.9466 13.28 11.68 13.1378 11.5378 12.8889L9.86664 9.99111L8.55109 7.71556C8.53331 7.69778 8.53331 7.68 8.53331 7.64445C8.53331 7.55556 8.51553 7.46667 8.51553 7.37778C8.51553 6.75556 8.65775 6.13334 8.9422 5.63556C8.97775 5.58223 9.06664 5.58223 9.1022 5.63556L11.2711 9.33334H13.0844V9.35111ZM8.99553 9.38667C9.38664 9.61778 9.63553 10.0622 9.63553 10.56C9.63553 10.6667 9.61775 10.7556 9.59998 10.8622C9.59998 10.88 9.56442 10.8978 9.54664 10.8978H7.05775H2.91553C2.47109 10.8978 2.09775 10.5067 2.15109 10.0444C2.18664 9.63556 2.5422 9.35111 2.95109 9.35111H4.71109L7.11109 5.22667L6.45331 4.10667C6.2222 3.71556 6.3822 3.2 6.80886 3.02223C7.1822 2.86223 7.60886 3.02223 7.8222 3.36L8.01775 3.69778L8.23109 3.34223C8.4622 2.95111 8.97775 2.82667 9.35109 3.09334C9.68886 3.32445 9.75998 3.78667 9.54664 4.14223L6.48886 9.35111H7.73331H8.87109C8.92442 9.35111 8.95998 9.36889 8.99553 9.38667Z" fill="white"/>
</g>
<defs>
<linearGradient id="paint0_linear_12_424" x1="7.99644" y1="0.00711111" x2="7.99644" y2="15.9964" gradientUnits="userSpaceOnUse">
<stop stop-color="#19E6FF"/>
<stop offset="1" stop-color="#1E51EE"/>
</linearGradient>
</defs>
</svg>
