<svg width="16" height="16" viewBox="0 0 16 16" fill="none" xmlns="http://www.w3.org/2000/svg">
<rect width="16" height="16" rx="4" fill="#4FB582"/>
<g clip-path="url(#clip0_12_369)">
<path d="M12.3801 10.1871C12.3078 10.0265 12.1919 9.8893 12.0456 9.79117L10.6617 8.80891C10.5524 8.73206 10.4352 8.667 10.3122 8.61482C10.1828 8.55686 10.0415 8.53079 9.89992 8.53879C9.75838 8.54679 9.62083 8.58863 9.49882 8.6608C9.36014 8.7373 9.2338 8.83429 9.12406 8.94848L8.82377 9.22802C8.65133 9.13 8.48971 9.01407 8.34159 8.88215C8.15159 8.72102 7.94649 8.5314 7.70031 8.2893C7.50785 8.09317 7.31457 7.8828 7.11153 7.64763C6.98458 7.50425 6.87047 7.34998 6.77055 7.18661C6.7677 7.17806 6.76403 7.16869 6.75997 7.15813L7.04398 6.86271C7.15221 6.75752 7.24607 6.63849 7.32312 6.50871C7.40929 6.37121 7.45538 6.21239 7.45617 6.05013C7.45436 5.92168 7.42668 5.79492 7.37479 5.67741C7.32215 5.55173 7.25452 5.43286 7.17338 5.3234L6.20861 3.96313C6.10754 3.81686 5.96895 3.70048 5.80741 3.62622C5.65986 3.55646 5.49862 3.52046 5.33541 3.52083C5.1325 3.52414 4.9323 3.56805 4.74662 3.64995C4.56094 3.73185 4.39353 3.8501 4.25427 3.99772C4.01183 4.2222 3.82239 4.49783 3.69968 4.8046C3.58396 5.09758 3.52539 5.41 3.52714 5.725C3.53541 6.23674 3.64581 6.74168 3.85184 7.21019C4.0808 7.73376 4.36638 8.2307 4.70349 8.69212C5.06629 9.18842 5.4659 9.65673 5.89896 10.0931C6.33616 10.5263 6.80499 10.9265 7.30155 11.2902C7.76574 11.6323 8.26727 11.9206 8.7965 12.1495C9.26275 12.3583 9.76645 12.4704 10.2772 12.4791C10.5965 12.4808 10.9129 12.4191 11.2082 12.2976C11.5137 12.1704 11.7861 11.975 12.0045 11.7264C12.1404 11.577 12.2531 11.408 12.3386 11.2251C12.4266 11.0417 12.4725 10.8409 12.4729 10.6375C12.4717 10.4827 12.4402 10.3297 12.3801 10.1871ZM11.7734 10.9582C11.7142 11.0854 11.636 11.2028 11.5415 11.3065C11.3848 11.4859 11.1893 11.6273 10.9698 11.7199C10.6549 11.8256 10.3221 11.8673 9.99091 11.8423C9.65973 11.8174 9.33689 11.7264 9.04146 11.5746C8.55588 11.3642 8.09572 11.0993 7.66979 10.7852C7.19932 10.4407 6.75512 10.0616 6.34085 9.65119C5.93125 9.2384 5.55326 8.7954 5.21008 8.32593C4.90025 7.9028 4.63785 7.44691 4.42761 6.96647C4.25425 6.57505 4.1606 6.15301 4.15214 5.725C4.15052 5.48886 4.19416 5.2546 4.28072 5.03489C4.3711 4.81141 4.5101 4.61084 4.68762 4.44774C4.76974 4.35644 4.86944 4.28265 4.98075 4.23077C5.09206 4.1789 5.21268 4.15001 5.33541 4.14583C5.40687 4.14561 5.47749 4.16132 5.54212 4.19181C5.60482 4.22045 5.65855 4.2656 5.69755 4.32243L6.66556 5.68717C6.71884 5.75879 6.76337 5.83652 6.79821 5.9187C6.81723 5.96009 6.82841 6.00466 6.83117 6.05013C6.8292 6.10091 6.81299 6.15012 6.78438 6.19214C6.73249 6.27762 6.66971 6.35599 6.59761 6.42529L6.28633 6.74916C6.23495 6.79976 6.19436 6.86024 6.16702 6.92696C6.13967 6.99368 6.12614 7.06525 6.12723 7.13735C6.12807 7.20746 6.13903 7.27708 6.15979 7.34405L6.21145 7.46734C6.3341 7.67608 6.47649 7.87257 6.63666 8.05411C6.85069 8.30151 7.0525 8.52164 7.258 8.7312C7.51964 8.98836 7.7357 9.18774 7.93753 9.35905C8.12026 9.51958 8.31907 9.66085 8.53079 9.7806L8.64146 9.82942C8.74385 9.86731 8.85479 9.87584 8.96177 9.85406C9.06875 9.83228 9.16751 9.78104 9.24693 9.70614L9.56472 9.39201C9.63509 9.3178 9.71631 9.25469 9.80561 9.20483C9.84303 9.17345 9.88977 9.15533 9.93856 9.15326C9.98735 9.1512 10.0355 9.16533 10.0754 9.19344C10.156 9.22803 10.2328 9.27099 10.3045 9.32161L11.6867 10.3031C11.7367 10.3334 11.7773 10.3771 11.8039 10.4292C11.8323 10.495 11.8472 10.5659 11.8478 10.6375C11.8474 10.7486 11.8219 10.8582 11.7734 10.9582Z" fill="white"/>
</g>
<defs>
<clipPath id="clip0_12_369">
<rect width="10" height="10" fill="white" transform="translate(3 3)"/>
</clipPath>
</defs>
</svg>
