<svg width="16" height="16" viewBox="0 0 16 16" fill="none" xmlns="http://www.w3.org/2000/svg">
<rect width="16" height="16" rx="4" fill="#8752CD"/>
<g clip-path="url(#clip0_12_484)">
<path d="M8 3.625C7.13471 3.625 6.28885 3.88159 5.56938 4.36232C4.84992 4.84305 4.28916 5.52633 3.95803 6.32576C3.6269 7.12519 3.54026 8.00485 3.70907 8.85352C3.87788 9.70219 4.29455 10.4817 4.90641 11.0936C5.51826 11.7054 6.29782 12.1221 7.14648 12.2909C7.99515 12.4597 8.87482 12.3731 9.67424 12.042C10.4737 11.7108 11.157 11.1501 11.6377 10.4306C12.1184 9.71115 12.375 8.86529 12.375 8C12.3733 6.84019 11.9119 5.72835 11.0918 4.90823C10.2717 4.08812 9.15982 3.62665 8 3.625ZM11.4094 6.4375H9.96563C9.74293 5.66529 9.35477 4.95083 8.82813 4.34375C9.39034 4.47093 9.91567 4.72598 10.3633 5.0891C10.811 5.45222 11.1689 5.91362 11.4094 6.4375ZM9.5625 8C9.56268 8.3147 9.53233 8.62867 9.47188 8.9375H6.52813C6.40729 8.31834 6.40729 7.68166 6.52813 7.0625H9.47188C9.53233 7.37133 9.56268 7.6853 9.5625 8ZM8 11.625C7.39764 11.0575 6.9465 10.3485 6.6875 9.5625H9.3125C9.0535 10.3485 8.60236 11.0575 8 11.625ZM8 4.375C8.60236 4.94253 9.0535 5.65147 9.3125 6.4375H6.6875C6.9465 5.65147 7.39764 4.94253 8 4.375ZM7.17188 4.34375C6.64523 4.95083 6.25708 5.66529 6.03438 6.4375H4.59063C4.83106 5.91362 5.18901 5.45222 5.63667 5.0891C6.08434 4.72598 6.60967 4.47093 7.17188 4.34375ZM4.25 8C4.24961 7.68373 4.28952 7.36869 4.36875 7.0625H5.89375C5.78542 7.68281 5.78542 8.31719 5.89375 8.9375H4.36875C4.28952 8.63131 4.24961 8.31627 4.25 8ZM4.59063 9.5625H6.03438C6.25708 10.3347 6.64523 11.0492 7.17188 11.6563C6.60967 11.5291 6.08434 11.274 5.63667 10.9109C5.18901 10.5478 4.83106 10.0864 4.59063 9.5625ZM8.82813 11.6563C9.35477 11.0492 9.74293 10.3347 9.96563 9.5625H11.4094C11.1689 10.0864 10.811 10.5478 10.3633 10.9109C9.91567 11.274 9.39034 11.5291 8.82813 11.6563ZM10.1063 8.9375C10.2146 8.31719 10.2146 7.68281 10.1063 7.0625H11.6313C11.7896 7.67747 11.7896 8.32253 11.6313 8.9375H10.1063Z" fill="white"/>
</g>
<defs>
<clipPath id="clip0_12_484">
<rect width="10" height="10" fill="white" transform="translate(3 3)"/>
</clipPath>
</defs>
</svg>
