<svg width="16" height="16" viewBox="0 0 16 16" fill="none" xmlns="http://www.w3.org/2000/svg">
<rect width="16" height="16" rx="4" fill="#FF5057"/>
<g clip-path="url(#clip0_12_380)">
<path d="M12.9119 4.98676L9.87915 8.00002L12.9119 11.0133C12.9668 10.8987 13 10.772 13 10.6367V5.3633C13 5.22801 12.9668 5.10135 12.9119 4.98676Z" fill="white"/>
<path d="M12.1211 4.48438H3.87886C3.74357 4.48438 3.61691 4.51764 3.50232 4.57246L7.37855 8.42916C7.72128 8.77189 8.27863 8.77189 8.62136 8.42916L12.4976 4.57246C12.383 4.51764 12.2563 4.48438 12.1211 4.48438Z" fill="white"/>
<path d="M3.08809 4.98676C3.03326 5.10135 3 5.22801 3 5.3633V10.6367C3 10.772 3.03326 10.8987 3.08809 11.0133L6.12088 8.00002L3.08809 4.98676Z" fill="white"/>
<path d="M9.4648 8.41431L9.03564 8.84347C8.46457 9.41454 7.53533 9.41454 6.96425 8.84347L6.53511 8.41431L3.50232 11.4276C3.61691 11.4824 3.74357 11.5157 3.87886 11.5157H12.1211C12.2563 11.5157 12.383 11.4824 12.4976 11.4276L9.4648 8.41431Z" fill="white"/>
</g>
<defs>
<clipPath id="clip0_12_380">
<rect width="10" height="10" fill="white" transform="translate(3 3)"/>
</clipPath>
</defs>
</svg>
