<svg width="16" height="16" viewBox="0 0 16 16" fill="none" xmlns="http://www.w3.org/2000/svg">
<rect width="16" height="16" rx="4" fill="#476AEE"/>
<g clip-path="url(#clip0_12_342)">
<path d="M5.35657 13.0191C5.21497 13.0191 5.07443 12.9796 4.95107 12.9017C4.73759 12.7669 4.6053 12.5358 4.59721 12.2834L4.57257 11.475C3.55878 10.5659 3 9.2896 3 7.88136C3 6.53729 3.51521 5.30125 4.45058 4.40091C5.37617 3.5101 6.6367 3.01953 8 3.01953C9.3633 3.01953 10.6238 3.5101 11.5494 4.40091C12.4848 5.30125 13 6.53729 13 7.88136C13 9.22536 12.4848 10.4614 11.5494 11.3617C10.6238 12.2525 9.3633 12.7432 8 12.7432C7.50851 12.7432 7.02756 12.6796 6.5704 12.5544L5.66289 12.9548C5.56454 12.9979 5.46033 13.0191 5.35657 13.0191ZM8 3.80078C5.59491 3.80078 3.78125 5.55501 3.78125 7.88136C3.78125 9.06628 4.24916 10.1375 5.09877 10.8975C5.25548 11.0386 5.34543 11.2298 5.35298 11.4367L5.35306 11.4392L5.37717 12.2269L6.26195 11.8365C6.42125 11.7664 6.60092 11.7529 6.76823 11.7985C7.16145 11.907 7.5755 11.9619 8 11.9619C10.4051 11.9619 12.2188 10.2076 12.2188 7.88136C12.2188 5.55501 10.4051 3.80078 8 3.80078ZM5.54173 9.47713L7.00162 8.35156C7.10027 8.27756 7.23607 8.27657 7.33563 8.35065L8.41588 9.19034C8.73967 9.43196 9.20308 9.34674 9.41891 9.00609L10.7767 6.85292C10.9079 6.64738 10.653 6.41507 10.4585 6.56224L8.9993 7.66797C8.90065 7.74205 8.76485 7.74297 8.66528 7.66888L7.58504 6.8488C7.26125 6.60718 6.79784 6.69232 6.582 7.03297L5.22351 9.18637C5.09236 9.39191 5.34726 9.6243 5.54173 9.47713Z" fill="white"/>
</g>
<defs>
<clipPath id="clip0_12_342">
<rect width="10" height="10" fill="white" transform="translate(3 3)"/>
</clipPath>
</defs>
</svg>
