<svg width="16" height="16" viewBox="0 0 16 16" fill="none" xmlns="http://www.w3.org/2000/svg">
<rect width="16" height="16" rx="4" fill="#C3E6F9"/>
<path d="M9.0115 7.36477L7.97371 8.89733L6.43908 10.4243C5.86833 9.69891 5.24509 8.99624 4.86511 8.14633L5.6923 6.87917L6.96099 5.65518C6.53697 6.17922 6.56863 6.94997 7.05599 7.43733C7.5774 7.95874 8.42255 7.95874 8.94394 7.43733C8.96744 7.41383 8.99013 7.38956 9.0115 7.36477Z" fill="#ECB72B"/>
<path d="M9.03547 7.33599C9.4632 6.81169 9.43285 6.03829 8.94391 5.54962C8.4225 5.02822 7.57734 5.02822 7.05596 5.54962C7.03406 5.57152 7.0132 5.59396 6.99316 5.61691L7.86838 4.19411L9.05578 3.16269C9.94264 3.44343 10.6762 4.06853 11.0997 4.88099L10.2334 6.27779L9.03547 7.33599Z" fill="#5085F7"/>
<path d="M6.96094 5.65525L4.865 8.14644C4.65713 7.68193 4.522 7.17345 4.50805 6.59314C4.507 6.56015 4.50647 6.52691 4.50647 6.49367C4.50647 5.6398 4.81282 4.85716 5.32182 4.25029L6.96094 5.65525Z" fill="#DA2F2A"/>
<path d="M6.96096 5.65525L5.32178 4.2502C5.96271 3.48604 6.92451 3 8.00002 3C8.36809 3 8.72285 3.05695 9.05598 3.1625L6.96096 5.65525Z" fill="#4274EB"/>
<path d="M11.4935 6.49346C11.4935 5.91184 11.3513 5.3634 11.0999 4.881L6.43896 10.4245C6.96852 11.0981 7.45238 11.7914 7.65348 12.6404C7.65992 12.6676 7.66686 12.6993 7.67424 12.7351C7.74715 13.0883 8.25295 13.0883 8.32586 12.7351C8.33324 12.6993 8.34018 12.6676 8.34662 12.6404C8.88271 10.3769 11.4288 9.2201 11.492 6.59314C11.4929 6.56002 11.4935 6.5268 11.4935 6.49346Z" fill="#60A850"/>
</svg>
