<svg width="16" height="16" viewBox="0 0 16 16" fill="none" xmlns="http://www.w3.org/2000/svg">
<rect width="16" height="16" rx="4" fill="#E71F98"/>
<g clip-path="url(#clip0_12_319)">
<path d="M10.4999 3H5.50006C4.12522 3 3.00012 4.12509 3.00012 5.49994V10.5001C3.00012 11.8745 4.12522 13 5.50006 13H10.4999C11.8748 13 12.9999 11.8745 12.9999 10.5001V5.49994C12.9999 4.12509 11.8748 3 10.4999 3ZM12.1665 10.5001C12.1665 11.4188 11.4192 12.1666 10.4999 12.1666H5.50006C4.58121 12.1666 3.83348 11.4188 3.83348 10.5001V5.49994C3.83348 4.58097 4.58121 3.83335 5.50006 3.83335H10.4999C11.4192 3.83335 12.1665 4.58097 12.1665 5.49994V10.5001Z" fill="white"/>
<path d="M10.7087 5.91656C11.0539 5.91656 11.3337 5.63675 11.3337 5.29158C11.3337 4.94641 11.0539 4.6666 10.7087 4.6666C10.3636 4.6666 10.0837 4.94641 10.0837 5.29158C10.0837 5.63675 10.3636 5.91656 10.7087 5.91656Z" fill="white"/>
<path d="M7.99994 5.49994C6.61897 5.49994 5.5 6.61903 5.5 7.99988C5.5 9.38022 6.61897 10.5001 7.99994 10.5001C9.38052 10.5001 10.4999 9.38022 10.4999 7.99988C10.4999 6.61903 9.38052 5.49994 7.99994 5.49994ZM7.99994 9.66671C7.07958 9.66671 6.33335 8.92049 6.33335 7.99988C6.33335 7.07927 7.07958 6.33329 7.99994 6.33329C8.9203 6.33329 9.66652 7.07927 9.66652 7.99988C9.66652 8.92049 8.9203 9.66671 7.99994 9.66671Z" fill="white"/>
</g>
<defs>
<clipPath id="clip0_12_319">
<rect width="10" height="10" fill="white" transform="translate(3 3)"/>
</clipPath>
</defs>
</svg>
