<svg width="16" height="16" viewBox="0 0 16 16" fill="none" xmlns="http://www.w3.org/2000/svg">
<rect width="16" height="16" rx="4" fill="#F04BCA"/>
<g clip-path="url(#clip0_12_354)">
<path fill-rule="evenodd" clip-rule="evenodd" d="M8.61091 4.5762C8.1145 4.55375 7.60558 4.55889 7.11635 4.59141C5.53328 4.69664 4.26633 5.97673 4.16199 7.59128C4.1405 7.92378 4.1405 8.26853 4.16199 8.60103C4.19861 9.16778 4.45147 9.71024 4.77177 10.1912C4.77656 10.1984 4.78104 10.2057 4.78521 10.2133C5.06369 10.7175 4.8595 11.2924 4.65151 11.6866C4.61744 11.7512 4.58944 11.8042 4.56626 11.8505C4.59771 11.8516 4.63311 11.8525 4.67407 11.8535C5.11938 11.8643 5.40171 11.7412 5.62652 11.5754L5.63386 11.57C5.70623 11.5166 5.77179 11.4683 5.82605 11.4332C5.87317 11.4027 5.95938 11.3489 6.06416 11.336C6.1739 11.3225 6.28033 11.3598 6.33346 11.3785C6.40144 11.4024 6.48782 11.4379 6.58764 11.4791L6.59571 11.4824C6.7538 11.5475 6.94304 11.5894 7.11635 11.6009C7.69596 11.6394 8.30291 11.6395 8.88375 11.6009C10.4668 11.4957 11.7337 10.2156 11.8381 8.60103C11.8596 8.26853 11.8596 7.92378 11.8381 7.59128C11.8342 7.53103 11.8287 7.47128 11.8216 7.41207C11.8011 7.2407 11.9235 7.08518 12.0948 7.0647C12.2662 7.04421 12.4217 7.16653 12.4422 7.33791C12.4506 7.40837 12.4572 7.47941 12.4618 7.55095C12.485 7.91033 12.485 8.28199 12.4618 8.64132C12.3377 10.5621 10.828 12.098 8.92521 12.2245C8.31675 12.265 7.68208 12.2649 7.07489 12.2245C6.83951 12.2089 6.58328 12.1532 6.3577 12.0603C6.2585 12.0195 6.19116 11.9918 6.14188 11.9737C6.10799 11.997 6.06299 12.0301 5.99746 12.0784C5.66727 12.3219 5.25042 12.4927 4.65886 12.4783C4.65254 12.4782 4.64618 12.478 4.63981 12.4778C4.52569 12.4751 4.40404 12.4722 4.30484 12.453C4.18535 12.4299 4.03752 12.3721 3.945 12.2144C3.8443 12.0427 3.88468 11.8691 3.92374 11.7597C3.96061 11.6565 4.02451 11.5355 4.0898 11.4119C4.09278 11.4062 4.09576 11.4005 4.09875 11.3949C4.29305 11.0267 4.34718 10.7258 4.24329 10.5252C3.89649 10.0017 3.58451 9.35649 3.53829 8.64132C3.51507 8.28199 3.51507 7.91033 3.53829 7.55095C3.66242 5.63023 5.17212 4.09427 7.07489 3.96779C7.58771 3.9337 8.11987 3.92835 8.63916 3.95184C8.81158 3.95963 8.945 4.10572 8.93721 4.27813C8.92941 4.45055 8.78333 4.584 8.61091 4.5762Z" fill="white"/>
<path fill-rule="evenodd" clip-rule="evenodd" d="M10.7612 3.64759C11.054 3.47857 11.4146 3.47857 11.7074 3.64759C11.8164 3.71052 11.914 3.80834 12.0278 3.92237C12.036 3.9306 12.0443 3.93892 12.0527 3.94731C12.0611 3.95569 12.0694 3.96399 12.0776 3.9722C12.1917 4.086 12.2895 4.18362 12.3524 4.29262C12.5214 4.58536 12.5214 4.94603 12.3524 5.23877C12.2895 5.34777 12.1917 5.44539 12.0776 5.55919C12.0694 5.5674 12.0611 5.57569 12.0527 5.58409L10.6744 6.96235C10.4806 7.15623 10.2464 7.24683 10.0361 7.30054C9.93109 7.32733 9.82559 7.34645 9.72989 7.36299C9.71268 7.36595 9.69593 7.36883 9.67947 7.37162C9.60076 7.38512 9.5298 7.39724 9.46022 7.41212C9.45409 7.41345 9.44793 7.41479 9.44176 7.41608C9.31426 7.44337 9.18668 7.4707 9.08118 7.47741C8.96493 7.48483 8.79639 7.47341 8.66151 7.33849C8.52659 7.20362 8.51518 7.03507 8.52259 6.91884C8.5293 6.81332 8.55659 6.68575 8.58393 6.55825C8.58522 6.55209 8.58655 6.54593 8.58789 6.53977C8.60276 6.47022 8.61489 6.39925 8.62834 6.32054C8.63118 6.30409 8.63405 6.28731 8.63701 6.27013C8.65355 6.17443 8.67268 6.06893 8.69947 5.96392C8.75318 5.75359 8.84376 5.51945 9.03764 5.32557L10.4159 3.94731C10.4243 3.93892 10.4326 3.9306 10.4408 3.92238C10.5546 3.80834 10.6522 3.71052 10.7612 3.64759ZM11.3949 4.18886C11.2955 4.13149 11.1731 4.13149 11.0737 4.18886C11.0461 4.20481 11.011 4.23613 10.8578 4.38925L9.47959 5.76752C9.39814 5.84899 9.34543 5.96032 9.30505 6.11852C9.2848 6.19778 9.26918 6.28232 9.25289 6.37654C9.25034 6.39142 9.24772 6.40665 9.24505 6.42217C9.23159 6.50104 9.21689 6.58712 9.19905 6.67046C9.18514 6.73546 9.17376 6.78884 9.16484 6.83516C9.21118 6.82624 9.26455 6.81485 9.32955 6.80095C9.41289 6.78313 9.49897 6.76842 9.57784 6.75494C9.59334 6.75228 9.60859 6.74968 9.62347 6.74711C9.71768 6.73083 9.80222 6.71519 9.88147 6.69495C10.0397 6.65456 10.151 6.60188 10.2325 6.52041L11.6108 5.14214C11.7639 4.98902 11.7952 4.95391 11.8111 4.92627C11.8685 4.82691 11.8685 4.70448 11.8111 4.60512C11.7952 4.57748 11.7639 4.54237 11.6108 4.38925C11.4576 4.23612 11.4225 4.20481 11.3949 4.18886Z" fill="white"/>
<path fill-rule="evenodd" clip-rule="evenodd" d="M5.91663 8.20832C5.91663 7.9782 6.10317 7.79166 6.33329 7.79166H6.33703C6.56715 7.79166 6.7537 7.9782 6.7537 8.20832C6.7537 8.43845 6.56715 8.62499 6.33703 8.62499H6.33329C6.10317 8.62499 5.91663 8.43845 5.91663 8.20832ZM7.58141 8.20832C7.58141 7.9782 7.76795 7.79166 7.99808 7.79166H8.00183C8.23195 7.79166 8.41849 7.9782 8.41849 8.20832C8.41849 8.43845 8.23195 8.62499 8.00183 8.62499H7.99808C7.76795 8.62499 7.58141 8.43845 7.58141 8.20832Z" fill="white"/>
</g>
<defs>
<clipPath id="clip0_12_354">
<rect width="10" height="10" fill="white" transform="translate(3 3)"/>
</clipPath>
</defs>
</svg>
