<svg width="16" height="16" viewBox="0 0 16 16" fill="none" xmlns="http://www.w3.org/2000/svg">
<rect width="16" height="16" rx="4" fill="#DF4344"/>
<path d="M10.0379 2H5.98392C5.29471 2 4.70911 2.56197 4.70911 3.25098V12.7504C4.70911 13.4395 5.28232 14 5.97153 14L10.0321 13.9956C10.7213 13.9956 11.285 13.435 11.285 12.7459L11.2909 3.25032C11.2908 2.55882 10.7298 2 10.0379 2ZM7.42524 2.75002H8.6014C8.70472 2.75002 8.78888 2.83389 8.78888 2.9375C8.78888 3.0411 8.70472 3.12498 8.6014 3.12498H7.42524C7.32164 3.12498 7.23776 3.0411 7.23776 2.9375C7.23776 2.83389 7.32164 2.75002 7.42524 2.75002ZM6.71849 2.80968C6.78798 2.7403 6.91446 2.73934 6.98385 2.80968C7.01864 2.84438 7.03922 2.89308 7.03922 2.94284C7.03922 2.99164 7.01864 3.04025 6.98385 3.07504C6.94925 3.10982 6.90035 3.13032 6.85165 3.13032C6.80199 3.13032 6.75424 3.10982 6.71849 3.07504C6.6839 3.04034 6.66417 2.99164 6.66417 2.94284C6.66407 2.89308 6.6839 2.84438 6.71849 2.80968ZM7.97548 13.6284C7.6661 13.6284 7.41447 13.3766 7.41447 13.0673C7.41447 12.7579 7.6661 12.5062 7.97548 12.5062C8.28487 12.5062 8.53649 12.7579 8.53649 13.0673C8.53649 13.3766 8.28477 13.6284 7.97548 13.6284ZM10.709 12.1248H5.36534V3.7813H10.709V12.1248Z" fill="white"/>
</svg>
