<svg width="16" height="16" viewBox="0 0 16 16" fill="none" xmlns="http://www.w3.org/2000/svg">
<rect width="16" height="16" rx="4" fill="#C3E6F9"/>
<g clip-path="url(#clip0_12_441)">
<path d="M10.4682 6.43014C9.30649 5.78039 7.44195 4.73705 4.54991 3.11773C4.35493 2.98896 4.1306 2.97208 3.93677 3.03769L8.89869 7.99961L10.4682 6.43014Z" fill="#32BBFF"/>
<path d="M3.93678 3.03769C3.90045 3.04999 3.8651 3.06484 3.83129 3.08277C3.61725 3.19855 3.45996 3.42134 3.45996 3.70312V12.2961C3.45996 12.5779 3.61723 12.8007 3.83129 12.9164C3.86504 12.9343 3.90037 12.9493 3.93666 12.9616L8.8987 7.99961L3.93678 3.03769Z" fill="#32BBFF"/>
<path d="M8.89869 7.99962L3.93665 12.9616C4.13053 13.0277 4.35487 13.0121 4.54991 12.8815C7.35456 11.311 9.19808 10.28 10.3732 9.62474C10.4059 9.60636 10.438 9.58839 10.4696 9.5706L8.89869 7.99962Z" fill="#32BBFF"/>
<path d="M3.45996 7.99962V12.2961C3.45996 12.5779 3.61723 12.8007 3.83129 12.9164C3.86504 12.9344 3.90037 12.9493 3.93666 12.9616L8.8987 7.99962H3.45996Z" fill="#2C9FD9"/>
<path d="M4.54993 3.11773C4.31839 2.96484 4.04534 2.9692 3.8313 3.08279L8.8234 8.07491L10.4682 6.43014C9.3065 5.78039 7.44197 4.73705 4.54993 3.11773Z" fill="#29CC5E"/>
<path d="M8.82344 7.92435L3.8313 12.9164C4.04536 13.03 4.31839 13.0366 4.54993 12.8815C7.35459 11.311 9.19811 10.28 10.3732 9.62474C10.4059 9.60636 10.438 9.58839 10.4697 9.5706L8.82344 7.92435Z" fill="#D93F21"/>
<path d="M12.5401 7.99961C12.5401 7.76153 12.42 7.52125 12.1819 7.38801C12.1819 7.38801 11.7366 7.13955 10.3717 6.37611L8.74817 7.99961L10.3732 9.62471C11.7232 8.86676 12.1818 8.6112 12.1818 8.6112C12.42 8.47797 12.5401 8.2377 12.5401 7.99961Z" fill="#FFD500"/>
<path d="M12.1819 8.61122C12.42 8.47798 12.5401 8.2377 12.5401 7.99962H8.74817L10.3732 9.62472C11.7232 8.86679 12.1819 8.61122 12.1819 8.61122Z" fill="#FFAA00"/>
</g>
<defs>
<clipPath id="clip0_12_441">
<rect width="10" height="10" fill="white" transform="translate(3 3)"/>
</clipPath>
</defs>
</svg>
