<svg width="16" height="16" viewBox="0 0 16 16" fill="none" xmlns="http://www.w3.org/2000/svg">
<rect width="16" height="16" rx="4" fill="#F3F3F3"/>
<g clip-path="url(#clip0_12_525)">
<path d="M6.55668 8.18359C5.76371 8.18359 5.12308 8.82422 5.1348 9.60937C5.14261 10.1133 5.41996 10.5508 5.82816 10.7949C5.68949 10.582 5.60746 10.3301 5.60355 10.0586C5.59183 9.27344 6.23246 8.63281 7.02543 8.63281C7.18168 8.63281 7.33207 8.6582 7.47269 8.70312V7.13086C7.32621 7.10937 7.17582 7.09766 7.02543 7.09766C7.01761 7.09766 7.01175 7.09766 7.00394 7.09766V8.25391C6.86332 8.20898 6.71293 8.18359 6.55668 8.18359Z" fill="#F00044"/>
<path d="M9.98437 3.46875H9.97266H9.56641C9.68359 4.05664 10.0137 4.56836 10.4746 4.91602C10.1719 4.51562 9.98828 4.01562 9.98437 3.46875Z" fill="#F00044"/>
<path d="M12.375 5.86133C12.2207 5.86133 12.0723 5.8457 11.9258 5.81836V6.94531C11.3945 6.94531 10.8789 6.8418 10.3945 6.63477C10.082 6.50195 9.79102 6.33203 9.52344 6.12695L9.53125 9.60156C9.52734 10.3828 9.21875 11.1152 8.66016 11.668C8.20508 12.1172 7.62891 12.4043 7.00391 12.4961C6.85742 12.5176 6.70703 12.5293 6.55664 12.5293C5.88867 12.5293 5.25195 12.3125 4.73438 11.9121C4.79297 11.9824 4.85547 12.0508 4.92383 12.1172C5.48633 12.6719 6.23242 12.9785 7.02734 12.9785C7.17773 12.9785 7.32813 12.9668 7.47461 12.9453C8.09961 12.8535 8.67578 12.5664 9.13086 12.1172C9.68945 11.5645 9.99805 10.832 10.002 10.0508L9.97266 6.57617C10.2383 6.78125 10.5293 6.95313 10.8437 7.08398C11.3301 7.28906 11.8457 7.39453 12.375 7.39453" fill="#F00044"/>
<path d="M4.91798 7.96289C5.47462 7.41016 6.21485 7.10352 7.00392 7.09766V6.68164C6.85743 6.66016 6.70704 6.64844 6.55665 6.64844C5.75977 6.64844 5.01173 6.95508 4.44923 7.51367C3.89649 8.0625 3.58009 8.8125 3.58204 9.5918C3.58204 10.377 3.89259 11.1133 4.45313 11.6699C4.54298 11.7578 4.63477 11.8398 4.73243 11.9141C4.29102 11.3887 4.05079 10.7324 4.04884 10.041C4.05079 9.26172 4.36524 8.51172 4.91798 7.96289Z" fill="#08FFF9"/>
<path d="M11.9258 5.81836V5.40039H11.9219C11.3789 5.40039 10.8789 5.2207 10.4766 4.91602C10.8262 5.37695 11.3379 5.70508 11.9258 5.81836Z" fill="#08FFF9"/>
<path d="M6.94531 11.4414C7.13086 11.4512 7.30859 11.4258 7.47266 11.373C8.03906 11.1875 8.44727 10.6602 8.44727 10.0391L8.44922 7.71484V3.46875H9.56641C9.53711 3.32227 9.52148 3.17383 9.51953 3.01953H7.98047V7.26367L7.97852 9.58789C7.97852 10.209 7.57031 10.7363 7.00391 10.9219C6.83984 10.9766 6.66211 11.002 6.47656 10.9902C6.24023 10.9766 6.01953 10.9063 5.82812 10.793C6.06836 11.1641 6.47852 11.416 6.94531 11.4414Z" fill="#08FFF9"/>
<path d="M7.00392 12.4961C7.62892 12.4043 8.20509 12.1172 8.66016 11.668C9.21876 11.1152 9.52735 10.3828 9.53126 9.60156L9.52345 6.12695C9.78907 6.33203 10.0801 6.50391 10.3945 6.63477C10.8809 6.83984 11.3965 6.94531 11.9258 6.94531V5.81836C11.3379 5.70508 10.8262 5.37695 10.4766 4.91602C10.0156 4.56836 9.6836 4.05664 9.56837 3.46875H8.44923V7.71289L8.44727 10.0371C8.44727 10.6582 8.03907 11.1855 7.47267 11.3711C7.3086 11.4258 7.13087 11.4512 6.94532 11.4395C6.47657 11.4141 6.06837 11.1621 5.82813 10.793C5.41993 10.5508 5.14259 10.1113 5.13477 9.60742C5.12306 8.82227 5.76368 8.18164 6.55665 8.18164C6.7129 8.18164 6.86329 8.20703 7.00392 8.25195V7.0957C6.21485 7.10156 5.47462 7.4082 4.91798 7.96094C4.36524 8.50977 4.04884 9.25977 4.05079 10.0371C4.05079 10.7285 4.29102 11.3848 4.73438 11.9102C5.25392 12.3105 5.88868 12.5273 6.55665 12.5273C6.70704 12.5293 6.85743 12.5176 7.00392 12.4961Z" fill="black"/>
</g>
<g clip-path="url(#clip1_12_525)">
<path d="M12.5 9.125C11.1215 9.125 10 10.1343 10 11.375C10 11.8087 10.1372 12.2288 10.3973 12.592C10.3481 13.1368 10.2161 13.5412 10.0244 13.7328C9.99909 13.7581 9.99276 13.7968 10.0088 13.8288C10.0229 13.8574 10.0521 13.875 10.0833 13.875C10.0872 13.875 10.091 13.8748 10.0949 13.8742C10.1287 13.8694 10.9127 13.7566 11.4798 13.4293C11.8018 13.5592 12.1448 13.625 12.5 13.625C13.8785 13.625 15 12.6157 15 11.375C15 10.1343 13.8785 9.125 12.5 9.125ZM11.3333 11.7083C11.1495 11.7083 11 11.5588 11 11.375C11 11.1912 11.1495 11.0417 11.3333 11.0417C11.5172 11.0417 11.6667 11.1912 11.6667 11.375C11.6667 11.5588 11.5172 11.7083 11.3333 11.7083ZM12.5 11.7083C12.3162 11.7083 12.1667 11.5588 12.1667 11.375C12.1667 11.1912 12.3162 11.0417 12.5 11.0417C12.6838 11.0417 12.8333 11.1912 12.8333 11.375C12.8333 11.5588 12.6838 11.7083 12.5 11.7083ZM13.6667 11.7083C13.4828 11.7083 13.3333 11.5588 13.3333 11.375C13.3333 11.1912 13.4828 11.0417 13.6667 11.0417C13.8505 11.0417 14 11.1912 14 11.375C14 11.5588 13.8505 11.7083 13.6667 11.7083Z" fill="#818181"/>
</g>
<defs>
<clipPath id="clip0_12_525">
<rect width="10" height="10" fill="white" transform="translate(3 3)"/>
</clipPath>
<clipPath id="clip1_12_525">
<rect width="5" height="5" fill="white" transform="translate(10 9)"/>
</clipPath>
</defs>
</svg>
