<svg width="16" height="16" viewBox="0 0 16 16" fill="none" xmlns="http://www.w3.org/2000/svg">
<g clip-path="url(#clip0_12_307)">
<path d="M14.7368 0H1.26316C0.565535 0 0 0.565535 0 1.26316V14.7368C0 15.4345 0.565535 16 1.26316 16H14.7368C15.4345 16 16 15.4345 16 14.7368V1.26316C16 0.565535 15.4345 0 14.7368 0Z" fill="#03A9F4"/>
<path d="M13.1821 4.7863C12.7923 4.95654 12.38 5.06963 11.9579 5.12209C12.4028 4.85823 12.7355 4.44021 12.8926 3.94735C12.4762 4.19455 12.0205 4.36864 11.5453 4.46209C11.2541 4.15067 10.8759 3.93408 10.4599 3.8405C10.044 3.74692 9.60948 3.78067 9.21296 3.93737C8.81645 4.09407 8.47626 4.36646 8.23665 4.71911C7.99704 5.07177 7.8691 5.48837 7.86947 5.91472C7.86797 6.07746 7.88456 6.23986 7.91894 6.39893C7.07365 6.35741 6.24662 6.13804 5.49189 5.75514C4.73715 5.37224 4.07168 4.83442 3.53894 4.17683C3.26511 4.64463 3.18027 5.19934 3.30177 5.7276C3.42327 6.25586 3.74193 6.71777 4.19262 7.01893C3.85623 7.00986 3.52696 6.91996 3.23262 6.75683V6.77999C3.23357 7.27033 3.40329 7.7454 3.71327 8.12534C4.02324 8.50528 4.45456 8.76693 4.93473 8.8663C4.75302 8.91404 4.56576 8.93741 4.37789 8.93577C4.24261 8.93827 4.10745 8.92627 3.97473 8.89998C4.11229 9.32169 4.37714 9.69042 4.73284 9.95545C5.08853 10.2205 5.51761 10.3688 5.96105 10.38C5.2096 10.9673 4.28323 11.2864 3.32947 11.2863C3.15953 11.2877 2.98968 11.2779 2.82104 11.2568C3.79354 11.8838 4.92711 12.2151 6.0842 12.2105C9.99473 12.2105 12.1326 8.97156 12.1326 6.1642C12.1326 6.07051 12.1326 5.97998 12.1253 5.88946C12.5416 5.58897 12.8997 5.21515 13.1821 4.7863Z" fill="white"/>
</g>
<defs>
<clipPath id="clip0_12_307">
<rect width="16" height="16" rx="4" fill="white"/>
</clipPath>
</defs>
</svg>
