<svg width="16" height="16" viewBox="0 0 16 16" fill="none" xmlns="http://www.w3.org/2000/svg">
<rect width="16" height="16" rx="4" fill="#405BD8"/>
<path d="M12.9125 5.69375C12.8089 5.62527 12.6899 5.58359 12.5662 5.57246C12.4425 5.56134 12.3179 5.58111 12.2037 5.63L10.625 6.305V5.75C10.625 5.45163 10.5065 5.16548 10.2955 4.9545C10.0845 4.74353 9.79837 4.625 9.5 4.625H3.875C3.57663 4.625 3.29048 4.74353 3.0795 4.9545C2.86853 5.16548 2.75 5.45163 2.75 5.75V10.25C2.75 10.5484 2.86853 10.8345 3.0795 11.0455C3.29048 11.2565 3.57663 11.375 3.875 11.375H9.5C9.79837 11.375 10.0845 11.2565 10.2955 11.0455C10.5065 10.8345 10.625 10.5484 10.625 10.25V9.695L12.2075 10.37C12.3205 10.4205 12.4444 10.4414 12.5677 10.4309C12.691 10.4205 12.8097 10.3788 12.9125 10.31C13.0162 10.2417 13.1013 10.1487 13.1602 10.0394C13.2191 9.93013 13.25 9.80792 13.25 9.68375V6.30875C13.2481 6.18649 13.2164 6.06655 13.1576 5.95936C13.0988 5.85217 13.0146 5.76098 12.9125 5.69375ZM9.875 10.25C9.875 10.3495 9.83549 10.4448 9.76517 10.5152C9.69484 10.5855 9.59946 10.625 9.5 10.625H3.875C3.77554 10.625 3.68016 10.5855 3.60984 10.5152C3.53951 10.4448 3.5 10.3495 3.5 10.25V5.75C3.5 5.65054 3.53951 5.55516 3.60984 5.48484C3.68016 5.41451 3.77554 5.375 3.875 5.375H9.5C9.59946 5.375 9.69484 5.41451 9.76517 5.48484C9.83549 5.55516 9.875 5.65054 9.875 5.75V10.25ZM10.625 8.8775V7.1225L12.5 6.31625V9.69125L10.625 8.8775Z" fill="white"/>
</svg>
