<svg width="16" height="16" viewBox="0 0 16 16" fill="none" xmlns="http://www.w3.org/2000/svg">
<rect width="16" height="16" rx="4" fill="#1CC459"/>
<g clip-path="url(#clip0_12_320)">
<path d="M10.2946 8.96125L10.2909 8.9925C9.37464 8.53583 9.27881 8.475 9.16047 8.6525C9.07839 8.77542 8.83922 9.05417 8.76714 9.13667C8.69422 9.21792 8.62172 9.22417 8.49797 9.16792C8.37297 9.10542 7.97172 8.97417 7.49672 8.54917C7.12672 8.21792 6.87839 7.81167 6.80506 7.68667C6.68297 7.47583 6.93839 7.44583 7.17089 7.00583C7.21256 6.91833 7.19131 6.84958 7.16047 6.7875C7.12922 6.725 6.88047 6.1125 6.77631 5.86833C6.67631 5.625 6.57339 5.65583 6.49631 5.65583C6.25631 5.635 6.08089 5.63833 5.92631 5.79917C5.25381 6.53833 5.42339 7.30083 5.99881 8.11167C7.12964 9.59167 7.73214 9.86417 8.83381 10.2425C9.13131 10.3371 9.40256 10.3237 9.61714 10.2929C9.85631 10.255 10.3534 9.9925 10.4571 9.69875C10.5634 9.405 10.5634 9.16125 10.5321 9.105C10.5013 9.04875 10.4196 9.0175 10.2946 8.96125Z" fill="white"/>
<path d="M11.55 4.43705C8.34625 1.33997 3.04417 3.58622 3.04208 7.95538C3.04208 8.82872 3.27083 9.68038 3.70667 10.4325L3 13L5.63958 12.3116C8.93333 14.0908 12.9983 11.7283 13 7.95788C13 6.63455 12.4833 5.38913 11.5437 4.4533L11.55 4.43705ZM12.1675 7.94413C12.165 11.1246 8.67375 13.1108 5.9125 11.4875L5.7625 11.3983L4.2 11.8046L4.61875 10.2858L4.51917 10.1296C2.80083 7.39413 4.775 3.81913 8.03 3.81913C9.13583 3.81913 10.1737 4.25038 10.9554 5.03163C11.7367 5.80622 12.1675 6.84413 12.1675 7.94413Z" fill="white"/>
</g>
<defs>
<clipPath id="clip0_12_320">
<rect width="10" height="10" fill="white" transform="translate(3 3)"/>
</clipPath>
</defs>
</svg>
